<svg width="661" height="146" viewBox="0 0 661 146" fill="none" xmlns="http://www.w3.org/2000/svg">
<path d="M28.4647 86.6394C18.6837 78.6174 6.6055 79.0185 1.78906 80.2218V145.599H658.678V31.2871C645.34 32.7578 624.992 37.641 590.877 31.2871C556.421 24.8697 554.198 34.095 546.417 46.93C539.355 58.58 521.965 48.5345 487.509 61.7706C459.807 72.4119 447.051 28.8807 440.826 17.6497C436.38 9.62776 419.708 7.62245 415.262 17.6497C410.816 31.2871 407.926 57.9201 405.259 61.7706C401.09 67.7873 392.3 68.5145 385.252 66.1829C371.914 61.7706 374.137 46.2093 374.137 35.2983C374.137 24.8697 356.953 24.8697 354.13 31.2871C343.015 56.5565 341.904 95.0369 323.009 95.4631C308.782 95.784 304.113 85.8367 296.333 76.2111C293.414 72.6005 282.995 70.1144 269.657 76.2111C252.985 83.832 247.428 77.0133 246.316 74.2047C245.205 71.396 239.767 56.5982 238.536 27.2775C237.424 0.804979 210.462 2.00802 208.526 12.8375C201.857 50.1399 209.716 100.677 178.515 100.677C160.732 100.677 160.732 87.4109 160.732 76.6113C160.732 67.7871 146.282 66.9849 141.836 74.2047C137.39 81.4245 134.056 89.8484 119.607 89.8484C102.787 89.8484 97.3769 79.419 97.3769 71.397C97.3769 63.375 95.1424 53.7748 86.262 53.3475C69.5897 52.5453 71.8127 81.0234 66.2553 89.8484C61.8492 96.8451 40.6911 96.6668 28.4647 86.6394Z" fill="url(#paint0_linear_1_648)" fill-opacity="0.3"/>
<path d="M1.78906 80.2218C6.6055 79.0185 18.6837 78.6174 28.4647 86.6394C40.6911 96.6668 61.8492 96.8451 66.2553 89.8484C71.8127 81.0233 69.5897 52.5453 86.262 53.3475C95.1424 53.7748 97.3769 63.375 97.3769 71.397C97.3769 79.419 102.787 89.8484 119.607 89.8484C134.056 89.8484 137.39 81.4244 141.836 74.2047C146.282 66.9849 160.732 67.7871 160.732 76.6113C160.732 87.4109 160.732 100.677 178.515 100.677C209.716 100.677 201.857 50.1399 208.526 12.8375C210.462 2.00802 237.424 0.804979 238.536 27.2775C239.767 56.5982 245.205 71.396 246.316 74.2047C247.428 77.0133 252.985 83.832 269.657 76.2111C282.995 70.1144 293.414 72.6005 296.333 76.2111C304.113 85.8367 308.782 95.784 323.009 95.4631C341.904 95.0369 343.015 56.5565 354.13 31.2871C356.953 24.8697 374.137 24.8697 374.137 35.2983C374.137 46.2093 371.914 61.7706 385.252 66.1829C392.3 68.5144 401.09 67.7873 405.259 61.7706C407.926 57.9201 410.816 31.2871 415.262 17.6497C419.708 7.62245 436.38 9.62776 440.826 17.6497C447.051 28.8807 459.807 72.4119 487.509 61.7706C521.965 48.5345 539.355 58.58 546.417 46.93C554.198 34.095 556.421 24.8697 590.877 31.2871C624.992 37.641 645.34 32.7578 658.678 31.2871" stroke="url(#paint1_linear_1_648)" stroke-width="3" stroke-linecap="round" stroke-linejoin="round"/>
<defs>
<linearGradient id="paint0_linear_1_648" x1="330.233" y1="-188.809" x2="330.233" y2="145.599" gradientUnits="userSpaceOnUse">
<stop stop-color="#4318FF"/>
<stop offset="1" stop-color="#4318FF" stop-opacity="0"/>
</linearGradient>
<linearGradient id="paint1_linear_1_648" x1="696.718" y1="-39.6543" x2="-6.9509" y2="170.851" gradientUnits="userSpaceOnUse">
<stop stop-color="#4318FF"/>
<stop offset="1" stop-color="#4318FF" stop-opacity="0"/>
</linearGradient>
</defs>
</svg>
