<svg width="43" height="42" viewBox="0 0 43 42" fill="none" xmlns="http://www.w3.org/2000/svg">
<circle cx="21.7891" cy="21" r="21" fill="#F4F7FE"/>
<g clip-path="url(#clip0_1_761)">
<path d="M21.7891 16V12H11.7891V30H31.7891V16H21.7891ZM15.7891 28H13.7891V26H15.7891V28ZM15.7891 24H13.7891V22H15.7891V24ZM15.7891 20H13.7891V18H15.7891V20ZM15.7891 16H13.7891V14H15.7891V16ZM19.7891 28H17.7891V26H19.7891V28ZM19.7891 24H17.7891V22H19.7891V24ZM19.7891 20H17.7891V18H19.7891V20ZM19.7891 16H17.7891V14H19.7891V16ZM29.7891 28H21.7891V26H23.7891V24H21.7891V22H23.7891V20H21.7891V18H29.7891V28ZM27.7891 20H25.7891V22H27.7891V20ZM27.7891 24H25.7891V26H27.7891V24Z" fill="#1C6CB7"/>
</g>
<defs>
<clipPath id="clip0_1_761">
<rect width="24" height="24" fill="white" transform="translate(9.78906 9)"/>
</clipPath>
</defs>
</svg>
