<svg width="57" height="56" viewBox="0 0 57 56" fill="none" xmlns="http://www.w3.org/2000/svg">
<circle cx="28.7891" cy="28" r="28" fill="#F4F7FE"/>
<g clip-path="url(#clip0_1_520)">
<path d="M21.0732 24.3134H21.3469C22.4006 24.3134 23.2627 25.1755 23.2627 26.2291V35.808C23.2627 36.8616 22.4006 37.7237 21.3469 37.7237H21.0732C20.0196 37.7237 19.1575 36.8616 19.1575 35.808V26.2291C19.1575 25.1755 20.0196 24.3134 21.0732 24.3134ZM28.7363 18.5661C29.79 18.5661 30.6521 19.4282 30.6521 20.4819V35.808C30.6521 36.8616 29.79 37.7237 28.7363 37.7237C27.6826 37.7237 26.8205 36.8616 26.8205 35.808V20.4819C26.8205 19.4282 27.6826 18.5661 28.7363 18.5661ZM36.3993 29.5133C37.453 29.5133 38.3151 30.3754 38.3151 31.4291V35.808C38.3151 36.8616 37.453 37.7237 36.3993 37.7237C35.3457 37.7237 34.4836 36.8616 34.4836 35.808V31.4291C34.4836 30.3754 35.3457 29.5133 36.3993 29.5133Z" fill="#4318FF"/>
</g>
<defs>
<clipPath id="clip0_1_520">
<rect width="32.8417" height="32.8417" fill="white" transform="translate(12.3154 11.7242)"/>
</clipPath>
</defs>
</svg>
