<svg width="44" height="44" viewBox="0 0 44 44" fill="none" xmlns="http://www.w3.org/2000/svg">
<rect width="44" height="44" rx="10" fill="#4318FF"/>
<path d="M22.0006 7.69994C16.2806 7.69994 11.1432 11.0896 8.86575 16.3329C8.75982 16.5977 8.86575 16.9155 9.13056 17.0214C9.39538 17.1273 9.71315 17.0214 9.81908 16.7566C10.9843 14.1085 12.9439 11.937 15.3272 10.5599C14.5857 11.3014 13.9502 12.2018 13.4735 13.1551C13.2617 13.5788 13.3146 14.1085 13.6324 14.4262C14.1091 14.9559 15.0094 14.691 15.2743 14.4262C15.4861 14.2144 15.4332 13.9496 15.2743 13.6848C15.0094 13.261 14.4269 13.6848 14.4269 13.6848C14.4269 13.6848 15.3802 10.8777 19.0346 9.07697C19.6702 8.91808 20.2528 8.86512 20.8883 8.81216C20.3587 9.34179 19.7761 9.81845 19.0876 10.2422C19.0876 10.2422 16.6513 11.7251 16.2806 12.0429C16.0687 12.2548 16.0687 12.5196 16.2276 12.7844C16.4924 13.1551 16.8632 12.9433 16.9691 12.8373C17.3398 12.5725 19.6702 11.1425 19.6702 11.1425C21.0472 10.5599 22.4772 8.81216 22.4772 8.81216C24.8606 8.91808 27.085 9.6066 28.9917 10.8248L27.6676 12.1488C26.8732 12.9433 26.1846 13.4729 25.4961 13.8436C23.7483 14.8499 22.3713 16.3329 21.4709 18.1336C21.2591 18.5573 21.312 19.087 21.6298 19.4047C22.1594 19.8814 23.0069 19.6696 23.2717 19.4047L24.172 18.5044C24.3839 18.2925 24.3839 17.9747 24.172 17.7629C23.9602 17.551 23.6424 17.551 23.4306 17.7629L22.4243 18.6633C22.4243 18.6633 23.2717 16.227 26.0257 14.744C26.8202 14.3203 27.5617 13.6848 28.4091 12.8373L29.892 11.3544C30.1569 11.5662 30.4217 11.7781 30.6865 11.9899L29.0446 13.6318C28.4091 14.2144 27.8265 14.744 27.138 15.1677L25.602 16.0681C25.3372 16.227 25.2313 16.5448 25.3902 16.8096C25.602 17.1803 26.0257 17.0744 26.1317 17.0214L27.6676 16.121C28.462 15.6444 29.1506 15.0618 29.7861 14.4262L31.4809 12.7314C31.8517 13.1022 32.1694 13.4729 32.4872 13.8436L27.8265 18.5044C26.6613 19.6696 25.7609 20.9936 25.1783 22.4236C24.5428 23.9066 23.6954 25.3366 22.5832 26.6607C22.3713 26.8725 22.4243 27.1903 22.6361 27.4022C22.9009 27.667 23.2717 27.4551 23.3776 27.3492C24.5428 25.9722 25.4432 24.4362 26.1317 22.8473C26.6613 21.5233 27.4557 20.3581 28.568 19.2459L33.1228 14.691C33.7583 15.6444 34.235 16.6507 34.6057 17.7099L32.2224 20.1462C31.2161 20.9407 30.3157 22.8473 30.3157 22.8473C29.6272 24.0125 28.6209 25.0188 27.4557 25.7073C26.1846 26.5018 24.9665 27.4022 23.9602 28.4085L22.4772 29.8914C22.2654 30.1033 21.9476 30.1033 21.7357 29.8914C21.6298 29.7855 21.4709 29.4677 21.7357 29.1499C21.9476 28.9381 21.9476 28.6203 21.7357 28.4085C21.5239 28.1966 21.1532 28.1966 20.9943 28.4085C20.0939 29.4677 20.6765 30.3151 20.9943 30.6329C21.8417 31.4803 22.9009 30.9507 23.2187 30.6329L24.7017 29.1499C25.655 28.1966 26.7672 27.2962 27.9854 26.5547C29.3094 25.7603 30.3687 24.6481 31.1632 23.377C31.1632 23.377 32.0106 21.6292 32.9639 20.8877L34.9235 18.8751C35.1354 19.8814 35.2413 20.9407 35.2413 21.9999C35.2413 28.3025 30.7924 33.5988 24.9135 34.9229C25.1783 34.711 25.4432 34.5522 25.708 34.3933C25.9728 34.2344 26.0257 33.9166 25.8669 33.6518C25.708 33.387 25.3902 33.334 25.1254 33.4929C24.1191 34.0225 22.9009 35.2407 22.9009 35.2407C22.5832 35.2407 21.6298 35.2936 21.4709 35.2407L22.2124 34.4992C22.9009 33.8107 23.4835 33.387 24.1191 33.0162L25.655 32.1159C26.5024 31.6392 27.1909 31.0566 27.7735 30.421C27.7735 30.421 28.7269 29.4677 28.7798 29.5207C28.7798 29.5207 27.7735 31.2685 27.138 31.957C26.9261 32.1688 26.9261 32.4866 27.138 32.6985C27.3498 32.9103 27.6676 32.9103 27.8794 32.6985C28.6209 31.904 29.2565 31.0566 29.7332 30.0503C29.945 29.6266 29.8391 29.097 29.5743 28.7792C28.9917 28.3025 28.1972 28.5144 27.9324 28.7792L27.032 29.6796C26.5024 30.2622 25.8669 30.7388 25.1254 31.1625L23.5894 32.0629C22.848 32.4866 22.2124 33.0162 21.4709 33.7577L20.0939 35.0818C17.7106 34.764 15.5391 33.7577 13.7383 32.3277L15.2743 30.7918C16.0687 29.9973 16.7572 29.4677 17.4457 29.097C19.1935 28.0907 20.5706 26.6077 21.4709 24.807C21.6828 24.3833 21.6828 23.8536 21.2591 23.4829C21.0472 23.271 20.1469 23.0062 19.6702 23.4829L18.7698 24.3833C18.2402 24.9659 17.6046 25.4425 16.8632 25.8662L15.3272 26.7666C14.4798 27.2433 13.7913 27.8259 13.2087 28.4614L11.5669 30.1033C11.302 29.7325 11.0372 29.4147 10.8254 29.044L15.3802 24.4892C16.5983 23.2181 17.4457 21.894 18.0283 20.517C18.8228 18.5573 20.0409 16.7566 21.6298 15.1677L22.2124 14.5851C22.5302 14.2673 22.9539 13.1022 22.2124 12.3607C21.5769 11.7251 20.6235 11.7251 19.988 12.3607L18.505 13.8436C17.5517 14.797 16.4395 15.6973 15.2213 16.4388C13.8443 17.2862 12.785 18.3455 12.0435 19.6166C12.0435 19.6166 11.0902 21.6292 10.2957 22.1059L8.97167 23.4299C8.81278 23.0062 8.75982 22.5296 8.75982 21.9999C8.75982 21.6822 8.54797 21.4703 8.23019 21.4703C7.91241 21.4703 7.70056 21.6822 7.70056 21.9999C7.70056 29.8914 14.1091 36.2999 22.0006 36.2999C29.892 36.2999 36.3006 29.8914 36.3006 21.9999C36.3006 14.1085 29.892 7.69994 22.0006 7.69994ZM9.0776 24.807L10.9313 22.9533C12.0435 22.0529 12.8909 20.2522 12.8909 20.2522C13.5795 19.087 14.5328 18.1336 15.7509 17.3922C17.022 16.5977 18.2402 15.6973 19.2465 14.691L20.7294 13.2081C20.9413 12.9962 21.2061 12.9962 21.4709 13.2081C21.7887 13.4729 21.5769 13.8436 21.4709 13.9496L20.8883 14.5322C19.1935 16.227 17.9224 18.1336 17.075 20.1992C16.5454 21.4703 15.7509 22.6885 14.6387 23.8536L10.2957 28.1966C9.71315 27.0844 9.28945 25.9722 9.0776 24.807ZM12.2554 30.9507L13.9502 29.2559C14.4798 28.6733 15.1154 28.1966 15.8569 27.7729L17.3928 26.8725C18.2402 26.3959 18.9287 25.8133 19.5113 25.1777C19.5113 25.1777 20.4646 24.2773 20.5176 24.2773C20.5176 24.2773 18.452 27.3492 16.9161 28.1966C16.1217 28.6203 15.3802 29.2559 14.5328 30.1033L12.9439 31.6922C12.732 31.4273 12.4672 31.2155 12.2554 30.9507Z" fill="white"/>
<path d="M7.86145 18.6612C7.8104 18.8258 7.75936 19.0232 7.70831 19.2207C7.65727 19.3853 7.86145 19.5827 8.11667 19.6156C8.16771 19.6156 8.62711 19.6485 8.72919 19.3523C8.78024 19.1878 8.83128 19.0232 8.88233 18.8587C8.93337 18.6942 8.78024 18.4967 8.52502 18.4638C8.21875 18.3651 7.91249 18.4638 7.86145 18.6612Z" fill="white"/>
</svg>
