<svg width="43" height="42" viewBox="0 0 43 42" fill="none" xmlns="http://www.w3.org/2000/svg">
<circle cx="21.7891" cy="21" r="21" fill="#F4F7FE"/>
<g clip-path="url(#clip0_1_771)">
<path d="M28.7091 11.01C28.5091 10.42 27.9491 10 27.2891 10H16.2891C15.6291 10 15.0791 10.42 14.8691 11.01L12.7891 17V25C12.7891 25.55 13.2391 26 13.7891 26H14.7891C15.3391 26 15.7891 25.55 15.7891 25V24H27.7891V25C27.7891 25.55 28.2391 26 28.7891 26H29.7891C30.3391 26 30.7891 25.55 30.7891 25V17L28.7091 11.01ZM16.6391 12H26.9291L28.0091 15.11H15.5591L16.6391 12ZM28.7891 22H14.7891V17H28.7891V22Z" fill="#05CD99"/>
<path d="M17.2891 21C18.1175 21 18.7891 20.3284 18.7891 19.5C18.7891 18.6716 18.1175 18 17.2891 18C16.4606 18 15.7891 18.6716 15.7891 19.5C15.7891 20.3284 16.4606 21 17.2891 21Z" fill="#05CD99"/>
<path d="M26.2891 21C27.1175 21 27.7891 20.3284 27.7891 19.5C27.7891 18.6716 27.1175 18 26.2891 18C25.4606 18 24.7891 18.6716 24.7891 19.5C24.7891 20.3284 25.4606 21 26.2891 21Z" fill="#05CD99"/>
<path d="M16.7891 29H20.7891V27L26.7891 30H22.7891V32L16.7891 29Z" fill="#05CD99"/>
</g>
<defs>
<clipPath id="clip0_1_771">
<rect width="24" height="24" fill="white" transform="translate(9.78906 9)"/>
</clipPath>
</defs>
</svg>
